# xmcd
#
# Track frame offsets: 
#        150
#        10295
#        30527
#        53620
#        76610
#        86167
#        109752
#        134897
#        157097
#        187380
#        206290
#        240260
#
# Disc length: 3412 seconds
#
# Revision: 0
# Processed by: cddbd v1.5.2PL0 Copyright (c) Steve Scherf et al.
# Submitted via: ExactAudioCopyFreeDBPlugin 1.0
#
DISCID=990d520c
DTITLE=村松健 - LOVE COLLECTION
DYEAR=2003
DGENRE=Acoustic
TTITLE0=あの日,君がいったこと
TTITLE1=雪催~ゆきもよい~
TTITLE2=逢えてよかった
TTITLE3=片恋
TTITLE4=Tea for Two
TTITLE5=夕なぎの記憶
TTITLE6=もう一度,出会うために
TTITLE7=愛はどこに
TTITLE8=My Funny Valentine
TTITLE9=ペーチカの我が家
TTITLE10=キャンドルパワー
TTITLE11=星のまたたくように
EXTD=
EXTT0=
EXTT1=
EXTT2=
EXTT3=
EXTT4=
EXTT5=
EXTT6=
EXTT7=
EXTT8=
EXTT9=
EXTT10=
EXTT11=
PLAYORDER=
